#tb 0: 1/25
0,          0,          0,        1,   182160, 927bd48282b1545ce73bf9c68670a9b4
0,          1,          1,        1,   182104, d60b5eb10ff0a5cfd928ca00c215d344
0,          2,          2,        1,   183108, eab7279cfaf1cdde8a6c874f8fd83c49
0,          3,          3,        1,   182320, 62a4647b05709d86c51a18be16877e98
0,          4,          4,        1,   181920, 33cef2cf9df3293153192c2d71b3e04f
0,          5,          5,        1,   182424, ca198cc391d762fce8a0d1b52bf20f4e
0,          6,          6,        1,   182248, 37666d2ea0c2c78e158b0f2eac6d367e
0,          7,          7,        1,   181876, 91432f472cf373d5d4036bd100950f3e
0,          8,          8,        1,   182104, f78415ac9304c2ff0ef903debf9148bd
0,          9,          9,        1,   182540, c98da552ec452e2b6877fed05ecd7fee
0,         10,         10,        1,   182120, e6ecdb9af6591916153ca9aeba76b9d0
0,         11,         11,        1,   182136, 6367ca0d64b63303c2292b788dba0e60
0,         12,         12,        1,   181296, 59cec61dd7efc242939233b06ea683f3
0,         13,         13,        1,   182136, fc906cc12493c70f3f8fcbf640a7ffe8
0,         14,         14,        1,   182412, 571b1171b74de32801be9bd02a773eaa
0,         15,         15,        1,   182732, 9212760fa11fe4fa193ba1aa259e9765
0,         16,         16,        1,   181944, c8779690e7935000d38eba9889a40056
0,         17,         17,        1,   182232, e531631c1f9b273dd476bba14c2e36e1
0,         18,         18,        1,   181512, 012dec9becd805ded4452e9479edaa52
0,         19,         19,        1,   181424, 67c965637248333f92da9d493bf7546e
0,         20,         20,        1,   180764, 6139b448310c9c31f8fb6563a7fa194c
0,         21,         21,        1,   181072, 493ea592b7d59eebf01c002e7e22fc43
0,         22,         22,        1,   181160, 850adac4246bdf1fb1ada47e7886cb77
0,         23,         23,        1,   182156, d26cfac33e19b4ca11210c9e6cb91955
0,         24,         24,        1,   182260, 9554fd3b74b753135d298d788aae7c8d
0,         25,         25,        1,   181976, 5b94e7cd232949746691a94ebcc44fbe
0,         26,         26,        1,   181832, a0f9c815cb53396cec2164d32a900d46
0,         27,         27,        1,   181424, d2469bf8274936e282e78cb8f7f84859
0,         28,         28,        1,   180632, f1862cea94f752a8a104076ddee2f19f
0,         29,         29,        1,   180624, 01a084f93f7e58320a6972ddfba6d15d
0,         30,         30,        1,   181024, a744315a8357da7d85d23b107562270e
0,         31,         31,        1,   181844, 11d1feaef20b793f1c474014e0eccd75
0,         32,         32,        1,   181712, a68007bbdf0169c9ed2dffae3dc63221
0,         33,         33,        1,   182008, 4880e81cfd06ae1ee7016e292f2c8a0b
0,         34,         34,        1,   181800, c40bd225be33ad95c2757d6204d83212
0,         35,         35,        1,   181840, 655275b71e3ce4999ef7b54bfd4ab7d1
0,         36,         36,        1,   181848, 072f45397965a649c3dcd42737a81381
0,         37,         37,        1,   181976, 624d00b654dec2ebb13a43a2eed726ed
0,         38,         38,        1,   181216, 9d52bb427c7d82e74aa00839f4093173
0,         39,         39,        1,   181236, 873d7aa5b7e7a6e1a64044e35891ab69
0,         40,         40,        1,   180672, f584290b2b0384f7c86ce0aa07a2c0f1
0,         41,         41,        1,   181324, 87eda71b74f8033e5a142d17beb0bccc
0,         42,         42,        1,   180980, c6a41621433317f6cce5bbc90e9b11d2
0,         43,         43,        1,   181204, df15a287bfc1dbda81be966046c0982e
0,         44,         44,        1,   180720, d392d95c67349296d922dbf53ec3f832
0,         45,         45,        1,   180028, 8bded0918eae1e10073a40df3b6f0f39
0,         46,         46,        1,   179704, d23b2c0b47d81b60b64c05303bc163eb
0,         47,         47,        1,   179648, 2a178bb890bff21a27eec2342aeecb7f
0,         48,         48,        1,   179424, 31e54f174861aa95b52ba65fdbef6af8
0,         49,         49,        1,   178980, 75a7700b822236b0ecb169fd692910f1
